<svg xmlns="http://www.w3.org/2000/svg" width="189.029" height="34.041" viewBox="0 0 189.029 34.041"><g transform="translate(-71.338 -316.217)"><g transform="translate(71.337 316.217)"><path d="M192.767,320.253l1.858-3.972h-25.2s-4.477-.9-6.747,4.1c-2.3,5.011-6.218,13.723-6.218,13.723h34.021l2.186-4.086H169.833a2.5,2.5,0,0,1,1.53-3.6h17.611l1.745-3.342H173.754a1.835,1.835,0,0,1,1.414-2.82Z" transform="translate(-120.732 -316.217)" fill="#fff"/><path d="M71.337,316.783H85.165L89.071,332.8l16.639-15.835h8.216L91.44,337.909H78.026Z" transform="translate(-71.337 -316.545)" fill="#fff"/><path d="M268.374,320.829l1.829-3.619H259.433l-1.793,3.619Z" transform="translate(-179.444 -316.793)" fill="#fff"/><path d="M247.451,329.174l-6.177,12.445H251.9l6.268-12.445Z" transform="translate(-169.947 -323.736)" fill="#fff"/><path d="M272.419,334.433h5.6l3.771-7.669,15.782,7.822h5.6l8.8-17.376h-5.308l-3.916,7.95-15.235-7.95h-7.387Z" transform="translate(-188.019 -316.793)" fill="#fff"/><path d="M445.126,330.564a.547.547,0,0,0-.4.185c-.488.59-2.782,3.379-3.071,3.715a.153.153,0,0,0,.094.251H468.4a.258.258,0,0,0,.185-.42c-1.7-2.013-13.535-15.6-14.523-16.782a.45.45,0,0,0-.373-.153H445.31a.547.547,0,0,0-.361.163c-3.186,3.609-12.426,14.36-14.628,16.929a.147.147,0,0,0,.1.262h8.223a.418.418,0,0,0,.334-.186c.618-.678,9.179-11.078,10.393-12.489a.173.173,0,0,1,.128-.06c.049,0,.107.023.112.06.805.873,6.116,7.4,6.787,8.283a.137.137,0,0,1-.089.24H445.126" transform="translate(-279.614 -316.88)" fill="#fff"/><path d="M370.812,321.491H389.33l1.946-4.05H364.754s-4.69-.918-7.1,4.178l-1.415,2.739-1.83,3.394h17.851a1.87,1.87,0,0,1-1.491,2.881h-18.51l-1.96,4.045H376.83s4.689.915,7.087-4.178l1.412-2.747,1.836-3.394H369.317A1.859,1.859,0,0,1,370.812,321.491Z" transform="translate(-233.209 -316.89)" fill="#fff"/></g><g transform="translate(205.596 337.749)"><g transform="translate(0)"><path d="M391.208,380.1l2.317-12.1h3.668l.13,8.231h.03L400.74,368h3.548l-2.317,12.1h-2.218l1.787-9.338h-.03l-3.886,9.338H395.45l-.206-9.338h-.029l-1.787,9.338Z" transform="translate(-391.208 -367.796)" fill="#fff"/><path d="M422.438,373.77c.613-3.2,1.2-6.254,4.957-6.254s3.174,3.051,2.561,6.254c-.606,3.169-1.2,6.255-4.955,6.255S421.831,376.939,422.438,373.77Zm5.208,0c.594-3.1.685-4.443-.6-4.443s-1.7,1.342-2.3,4.443-.683,4.444.6,4.444S427.052,376.871,427.646,373.77Z" transform="translate(-409.07 -367.516)" fill="#fff"/><path d="M452.089,368l-.387,2.01h-2.534L447.236,380.1h-2.277l1.93-10.094h-2.536l.386-2.01Z" transform="translate(-422.046 -367.796)" fill="#fff"/><path d="M460.948,373.77c.614-3.2,1.2-6.254,4.956-6.254s3.176,3.051,2.562,6.254c-.6,3.169-1.2,6.255-4.954,6.255S460.342,376.939,460.948,373.77Zm5.21,0c.592-3.1.684-4.443-.6-4.443s-1.705,1.342-2.3,4.443-.685,4.444.6,4.444S465.563,376.871,466.158,373.77Z" transform="translate(-431.417 -367.516)" fill="#fff"/><path d="M482.478,380.1H480.2l2.317-12.1h4.212c1.554,0,2.34,1.106,1.946,3.168-.3,1.542-1.061,2.7-2.592,2.969l0,.031c.483.069,1.939.2,1.522,2.384a18.579,18.579,0,0,0-.424,3.553h-2.233a6.07,6.07,0,0,1,.206-2.347c.276-1.443.632-2.665-1.121-2.665h-.589Zm1.315-6.875h1.014c.907,0,1.355-1,1.5-1.775.223-1.158-.131-1.594-.858-1.594h-1.011Z" transform="translate(-442.847 -367.796)" fill="#fff"/><path d="M502.795,380.025c-2.821,0-3-1.843-2.474-3.94H502.6c-.222,1.158-.361,2.129.892,2.129.768,0,1.25-.554,1.409-1.374.417-2.181-4.146-2.316-3.455-5.919.363-1.895,1.465-3.4,4.243-3.4,2.222,0,3.11,1.109,2.474,3.639h-2.219c.173-.906.214-1.827-.707-1.827a1.405,1.405,0,0,0-1.422,1.293c-.442,2.295,4.188,2.093,3.458,5.9C506.673,379.654,504.533,380.025,502.795,380.025Z" transform="translate(-454.388 -367.516)" fill="#fff"/></g></g></g></svg>